<?xml version="1.0" encoding="UTF-8"?>
<svg width="24" height="24" viewBox="0 0 24 24" fill="none" xmlns="http://www.w3.org/2000/svg">
  <path d="M12 18c-3.31 0-6-2.69-6-6s2.69-6 6-6 6 2.69 6 6-2.69 6-6 6zm0-10c-2.21 0-4 1.79-4 4s1.79 4 4 4 4-1.79 4-4-1.79-4-4-4zm0-4c.55 0 1-.45 1-1V1c0-.55-.45-1-1-1s-1 .45-1 1v2c0 .55.45 1 1 1zm0 20c-.55 0-1 .45-1 1v2c0 .55.45 1 1 1s1-.45 1-1v-2c0-.55-.45-1-1-1zM5.99 4.58c-.39-.39-1.03-.39-1.41 0-.39.39-.39 1.03 0 1.41l1.06 1.06c.39.39 1.03.39 1.41 0s.39-1.03 0-1.41L5.99 4.58zm12.37 12.37c-.39-.39-1.03-.39-1.41 0-.39.39-.39 1.03 0 1.41l1.06 1.06c.39.39 1.03.39 1.41 0 .39-.39.39-1.03 0-1.41l-1.06-1.06zm1.06-10.96c.39-.39.39-1.03 0-1.41-.39-.39-1.03-.39-1.41 0l-1.06 1.06c-.39.39-.39 1.03 0 1.41.39.39 1.03.39 1.41 0l1.06-1.06zM7.05 18.36c.39-.39.39-1.03 0-1.41-.39-.39-1.03-.39-1.41 0l-1.06 1.06c-.39.39-.39 1.03 0 1.41.39.39 1.03.39 1.41 0l1.06-1.06z" fill="currentColor"/>
</svg>
